SplineFontDB: 3.2
FontName: Untitled1
FullName: Untitled1
FamilyName: Untitled1
Weight: Regular
Copyright: Copyright (c) 2025, Bastien
UComments: "2025-9-1: Created with FontForge (http://fontforge.org)"
Version: 001.000
ItalicAngle: 0
UnderlinePosition: -100
UnderlineWidth: 50
Ascent: 800
Descent: 200
InvalidEm: 0
LayerCount: 2
Layer: 0 0 "Arri+AOgA-re" 1
Layer: 1 0 "Avant" 0
XUID: [1021 699 -655757406 4346191]
OS2Version: 0
OS2_WeightWidthSlopeOnly: 0
OS2_UseTypoMetrics: 1
CreationTime: 1756745831
ModificationTime: 1756746660
OS2TypoAscent: 0
OS2TypoAOffset: 1
OS2TypoDescent: 0
OS2TypoDOffset: 1
OS2TypoLinegap: 0
OS2WinAscent: 0
OS2WinAOffset: 1
OS2WinDescent: 0
OS2WinDOffset: 1
HheadAscent: 0
HheadAOffset: 1
HheadDescent: 0
HheadDOffset: 1
OS2Vendor: 'PfEd'
DEI: 91125
Encoding: ISO8859-1
UnicodeInterp: none
NameList: AGL For New Fonts
DisplaySize: -48
AntiAlias: 1
FitToEm: 0
WinInfo: 0 18 14
BeginChars: 256 95

StartChar: exclam
Encoding: 33 33 1
Width: 331
VWidth: 999
Flags: HW
LayerCount: 2
Fore
SplineSet
71 721 m 1
 271 721 l 1
 261 238 l 1
 81 238 l 1
 71 721 l 1
276 105 m 0
 276 77 266 51 246 31 c 0
 226 11 199 0 171 0 c 0
 143 0 116 11 96 31 c 0
 76 51 66 77 66 105 c 0
 66 133 76 160 96 180 c 0
 116 200 143 211 171 211 c 0
 199 211 226 200 246 180 c 0
 266 160 276 133 276 105 c 0
EndSplineSet
EndChar

StartChar: quotedbl
Encoding: 34 34 2
Width: 420
VWidth: 999
Flags: HW
LayerCount: 2
Fore
SplineSet
17 772 m 1
 207 772 l 1
 207 576 l 1
 17 576 l 1
 17 772 l 1
416 576 m 1
 225 576 l 1
 225 772 l 1
 416 772 l 1
 416 576 l 1
EndSplineSet
EndChar

StartChar: numbersign
Encoding: 35 35 3
Width: 663
VWidth: 999
Flags: HW
LayerCount: 2
Fore
SplineSet
67 371 m 1
 67 536 l 1
 615 536 l 1
 615 371 l 1
 67 371 l 1
67 103 m 1
 67 268 l 1
 615 268 l 1
 615 103 l 1
 67 103 l 1
67 0 m 1
 205 721 l 1
 370 721 l 1
 232 0 l 1
 67 0 l 1
312 0 m 1
 450 721 l 1
 615 721 l 1
 477 0 l 1
 312 0 l 1
EndSplineSet
EndChar

StartChar: dollar
Encoding: 36 36 4
Width: 663
VWidth: 999
Flags: HW
LayerCount: 2
Fore
SplineSet
348 729 m 0
 454 729 554 676 613 588 c 1
 478 493 l 1
 449 537 401 564 348 564 c 0
 285 564 227 566 227 512 c 0
 227 478 256 467 292 459 c 2
 425 431 l 2
 559 403 656 342 656 213 c 0
 656 52 514 -8 334 -8 c 0
 216 -8 103 43 26 133 c 1
 161 227 l 1
 207 182 269 156 334 156 c 0
 398 156 455 158 455 213 c 0
 455 248 427 262 390 270 c 2
 257 298 l 2
 124 326 26 384 26 512 c 0
 26 672 168 729 348 729 c 0
265 750 m 1
 430 750 l 1
 417 -29 l 1
 252 -29 l 1
 265 750 l 1
EndSplineSet
EndChar

StartChar: percent
Encoding: 37 37 5
Width: 868
VWidth: 999
Flags: HW
LayerCount: 2
Fore
SplineSet
101 0 m 1
 590 721 l 1
 791 721 l 1
 302 0 l 1
 101 0 l 1
201 729 m 1
 309 729 379 666 379 560 c 0
 379 454 309 390 201 390 c 0
 93 390 23 454 23 560 c 0
 23 666 93 729 201 729 c 1
 201 564 l 1
 156 564 224 578 224 560 c 0
 224 542 156 555 201 555 c 0
 246 555 178 542 178 560 c 0
 178 578 246 564 201 564 c 1
 201 729 l 1
690 -8 m 1
 582 -8 513 55 513 161 c 0
 513 267 582 331 690 331 c 0
 798 331 868 267 868 161 c 0
 868 55 798 -8 690 -8 c 1
 690 156 l 1
 735 156 667 143 667 161 c 0
 667 179 735 166 690 166 c 0
 645 166 713 179 713 161 c 0
 713 143 645 156 690 156 c 1
 690 -8 l 1
EndSplineSet
EndChar

StartChar: ampersand
Encoding: 38 38 6
Width: 719
VWidth: 999
Flags: HW
LayerCount: 2
Fore
SplineSet
332 729 m 0
 417 729 499 698 562 641 c 1
 472 533 l 1
 435 569 384 589 332 589 c 0
 271 589 224 569 224 515 c 0
 224 478 248 446 283 436 c 1
 713 436 l 1
 713 292 l 1
 283 292 l 1
 134 364 l 1
 78 394 43 452 43 515 c 0
 43 665 168 729 332 729 c 0
134 364 m 1
 283 292 l 1
 243 287 214 254 214 214 c 0
 214 161 256 135 313 135 c 0
 396 135 468 196 480 278 c 1
 554 150 l 1
 485 51 372 -8 251 -8 c 0
 108 -8 13 74 13 214 c 0
 13 286 64 348 134 364 c 1
431 364 m 1
 602 364 l 1
 602 151 l 1
 692 0 l 1
 491 0 l 1
 431 151 l 1
 431 364 l 1
EndSplineSet
EndChar

StartChar: quotesingle
Encoding: 39 39 7
Width: 161
VWidth: 999
Flags: HW
LayerCount: 2
Fore
SplineSet
0 799 m 1
 196 799 l 1
 186 598 l 1
 10 598 l 1
 0 799 l 1
EndSplineSet
EndChar

StartChar: parenleft
Encoding: 40 40 8
Width: 367
VWidth: 999
Flags: HW
LayerCount: 2
Fore
SplineSet
205 772 m 1
 362 772 l 1
 291 636 254 485 254 332 c 0
 254 179 291 28 362 -108 c 1
 205 -108 l 1
 113 20 64 174 64 332 c 0
 64 490 113 644 205 772 c 1
EndSplineSet
EndChar

StartChar: parenright
Encoding: 41 41 9
Width: 367
VWidth: 999
Flags: HW
LayerCount: 2
Fore
SplineSet
17 772 m 1
 173 772 l 1
 265 644 315 490 315 332 c 0
 315 174 265 20 173 -108 c 1
 17 -108 l 1
 88 28 124 179 124 332 c 0
 124 485 88 636 17 772 c 1
EndSplineSet
EndChar

StartChar: asterisk
Encoding: 42 42 10
Width: 587
VWidth: 999
Flags: HW
LayerCount: 2
Fore
SplineSet
281 535 m 1
 83 569 l 1
 143 754 l 1
 323 665 l 1
 281 535 l 1
357 560 m 1
 263 382 l 1
 107 496 l 1
 247 640 l 1
 357 560 l 1
357 640 m 1
 497 496 l 1
 340 382 l 1
 247 560 l 1
 357 640 l 1
281 665 m 1
 461 754 l 1
 521 569 l 1
 323 535 l 1
 281 665 l 1
234 600 m 1
 205 799 l 1
 399 799 l 1
 370 600 l 1
 234 600 l 1
EndSplineSet
EndChar

StartChar: plus
Encoding: 43 43 11
Width: 663
VWidth: 999
Flags: HW
LayerCount: 2
Fore
SplineSet
86 206 m 1
 86 371 l 1
 596 371 l 1
 596 206 l 1
 86 206 l 1
241 33 m 1
 241 543 l 1
 441 543 l 1
 441 33 l 1
 241 33 l 1
EndSplineSet
EndChar

StartChar: comma
Encoding: 44 44 12
Width: 254
VWidth: 999
Flags: HW
LayerCount: 2
Fore
SplineSet
36 103 m 1
 237 103 l 1
 206 -103 l 1
 26 -103 l 1
 36 103 l 1
EndSplineSet
EndChar

StartChar: hyphen
Encoding: 45 45 13
Width: 663
VWidth: 999
Flags: HW
LayerCount: 2
Fore
SplineSet
86 206 m 1
 86 371 l 1
 596 371 l 1
 596 206 l 1
 86 206 l 1
EndSplineSet
EndChar

StartChar: period
Encoding: 46 46 14
Width: 276
VWidth: 999
Flags: HW
LayerCount: 2
Fore
SplineSet
248 97 m 0
 248 69 237 43 217 23 c 0
 197 3 171 -8 143 -8 c 0
 115 -8 88 3 68 23 c 0
 48 43 37 69 37 97 c 0
 37 125 48 152 68 172 c 0
 88 192 115 203 143 203 c 0
 171 203 197 192 217 172 c 0
 237 152 248 125 248 97 c 0
EndSplineSet
EndChar

StartChar: slash
Encoding: 47 47 15
Width: 459
VWidth: 999
Flags: HW
LayerCount: 2
Fore
SplineSet
254 729 m 1
 455 729 l 1
 218 -8 l 1
 17 -8 l 1
 254 729 l 1
EndSplineSet
EndChar

StartChar: zero
Encoding: 48 48 16
Width: 608
VWidth: 999
Flags: HW
LayerCount: 2
Fore
SplineSet
313 564 m 0
 238 564 227 447 227 360 c 0
 227 273 238 156 313 156 c 0
 388 156 399 273 399 360 c 0
 399 447 388 564 313 564 c 0
313 729 m 0
 508 729 600 572 600 360 c 0
 600 148 508 -8 313 -8 c 0
 118 -8 26 148 26 360 c 0
 26 572 118 729 313 729 c 0
EndSplineSet
EndChar

StartChar: one
Encoding: 49 49 17
Width: 608
VWidth: 999
Flags: HW
LayerCount: 2
Fore
SplineSet
261 721 m 5
 414 721 l 5
 414 165 l 5
 551 165 l 1
 551 0 l 1
 414 0 l 5
 213 0 l 5
 56 0 l 1
 56 165 l 1
 213 165 l 5
 213 526 l 5
 67 455 l 1
 67 626 l 1
 261 721 l 5
EndSplineSet
EndChar

StartChar: two
Encoding: 50 50 18
Width: 608
VWidth: 999
Flags: HW
LayerCount: 2
Fore
SplineSet
19 570 m 1
 73 669 175 729 287 729 c 0
 452 729 563 663 563 512 c 0
 563 415 501 358.462210644 398 271 c 2
 273.168945312 165 l 1
 563 165 l 1
 563 0 l 1
 22 0 l 1
 22 141 l 1
 314 402 l 2
 349 433.284246575 363 464 363 496 c 0
 363 547 327 577 274 577 c 4
 217 577 181 541 155 491 c 1
 19 570 l 1
EndSplineSet
EndChar

StartChar: three
Encoding: 51 51 19
Width: 608
VWidth: 999
Flags: HW
LayerCount: 2
Fore
SplineSet
82 721 m 1
 558 721 l 1
 558 610 l 1
 392 432 l 1
 510 432 600 351 600 231 c 0
 600 66 474 -8 294 -8 c 0
 165 -8 76 45 15 133 c 1
 150 227 l 1
 181 183 216 145 291 145 c 0
 354 145 399 175 399 231 c 0
 399 280 361 305 309 305 c 2
 259 305 l 1
 209 429 l 1
 338 573 l 1
 82 573 l 1
 82 721 l 1
EndSplineSet
EndChar

StartChar: four
Encoding: 52 52 20
Width: 608
VWidth: 999
Flags: HW
LayerCount: 2
Fore
SplineSet
331 389 m 1
 512 433 l 1
 512 267 l 1
 608 267 l 1
 608 102 l 1
 512 102 l 1
 512 0 l 1
 331 0 l 1
 331 102 l 1
 26 102 l 1
 26 267 l 1
 287 721 l 1
 488 721 l 1
 227 267 l 1
 331 267 l 1
 331 389 l 1
EndSplineSet
EndChar

StartChar: five
Encoding: 53 53 21
Width: 608
VWidth: 999
Flags: HWO
LayerCount: 2
Fore
SplineSet
248 274 m 1
 67 274 l 1
 67 721 l 1
 531 721 l 1
 531 556 l 1
 248 556 l 1
 248 436.110851091 l 1
 277.755471706 461.452794858 318.770289695 476 368 476 c 0
 511 476 600 383 600 238 c 0
 600 70 463 -8 281 -8 c 0
 174 -8 73 45 13 134 c 1
 148 228 l 1
 174 179 225 148 281 148 c 0
 348 148 399 177 399 238 c 0
 399 292 370 324 315 324 c 0
 286 324 253 303 248 274 c 1
EndSplineSet
EndChar

StartChar: six
Encoding: 54 54 22
Width: 608
VWidth: 999
Flags: HW
LayerCount: 2
Fore
SplineSet
579 603 m 1
 458 518 l 1
 434 557 390 581 344 581 c 0
 225 581 227 455 227 317 c 2
 227 241 l 2
 227 182 257 140 313 140 c 0
 372 140 407 180 407 241 c 0
 407 301 375 343 317 343 c 0
 259 343 227 301 227 241 c 1
 194 241 l 1
 194 379 252 483 379 483 c 0
 522 483 608 387 608 241 c 0
 608 78 486 -8 313 -8 c 0
 129 -8 26 125 26 317 c 0
 26 582 100 729 344 729 c 0
 439 729 527 682 579 603 c 1
EndSplineSet
EndChar

StartChar: seven
Encoding: 55 55 23
Width: 608
VWidth: 999
Flags: HW
LayerCount: 2
Fore
SplineSet
26 556 m 1
 26 721 l 1
 600 721 l 1
 600 556 l 1
 26 556 l 1
399 556 m 1
 600 556 l 1
 304 0 l 1
 103 0 l 1
 399 556 l 1
EndSplineSet
EndChar

StartChar: eight
Encoding: 56 56 24
Width: 608
VWidth: 999
Flags: HW
LayerCount: 2
Fore
SplineSet
313 589 m 1
 313 729 l 1
 459 729 558 651 558 511 c 0
 558 380 454 317 313 317 c 0
 172 317 67 380 67 511 c 0
 67 651 167 729 313 729 c 1
 313 589 l 1
 276 589 268 553 268 511 c 0
 268 469 276 433 313 433 c 0
 350 433 357 469 357 511 c 0
 357 553 350 589 313 589 c 1
313 317 m 1
 313 433 l 1
 475 433 600 371 600 224 c 0
 600 69 479 -8 313 -8 c 0
 147 -8 26 69 26 224 c 0
 26 371 151 433 313 433 c 1
 313 317 l 1
 259 317 227 280 227 224 c 0
 227 168 259 132 313 132 c 0
 367 132 399 168 399 224 c 0
 399 280 367 317 313 317 c 1
EndSplineSet
EndChar

StartChar: nine
Encoding: 57 57 25
Width: 608
VWidth: 999
Flags: HW
LayerCount: 2
Fore
SplineSet
134 203 m 1
 172 168 221 148 273 148 c 0
 424 148 409 312 409 487 c 0
 409 536 374 564 323 564 c 0
 272 564 237 536 237 487 c 0
 237 431 268 392 323 392 c 0
 378 392 409 431 409 487 c 1
 434 487 l 1
 470 371 383 252 261 252 c 0
 121 252 36 345 36 487 c 0
 36 646 155 729 323 729 c 0
 506 729 610 599 610 409 c 0
 610 138 526 -8 273 -8 c 0
 171 -8 76 38 13 118 c 1
 134 203 l 1
EndSplineSet
EndChar

StartChar: colon
Encoding: 58 58 26
Width: 304
VWidth: 999
Flags: HW
LayerCount: 2
Fore
SplineSet
262 97 m 0
 262 69 251 43 231 23 c 0
 211 3 185 -8 157 -8 c 0
 129 -8 102 3 82 23 c 0
 62 43 51 69 51 97 c 0
 51 125 62 152 82 172 c 0
 102 192 129 203 157 203 c 0
 185 203 211 192 231 172 c 0
 251 152 262 125 262 97 c 0
262 438 m 0
 262 410 251 384 231 364 c 0
 211 344 185 333 157 333 c 0
 129 333 102 344 82 364 c 0
 62 384 51 410 51 438 c 0
 51 466 62 493 82 513 c 0
 102 533 129 544 157 544 c 0
 185 544 211 533 231 513 c 0
 251 493 262 466 262 438 c 0
EndSplineSet
EndChar

StartChar: semicolon
Encoding: 59 59 27
Width: 304
VWidth: 999
Flags: HW
LayerCount: 2
Fore
SplineSet
262 97 m 0
 262 69 251 43 231 23 c 0
 211 3 185 -8 157 -8 c 0
 129 -8 102 3 82 23 c 0
 62 43 51 69 51 97 c 0
 51 125 62 152 82 172 c 0
 102 192 129 203 157 203 c 0
 185 203 211 192 231 172 c 0
 251 152 262 125 262 97 c 0
87 103 m 1
 288 103 l 1
 206 -103 l 1
 26 -103 l 1
 87 103 l 1
EndSplineSet
EndChar

StartChar: less
Encoding: 60 60 28
Width: 619
VWidth: 999
Flags: HW
LayerCount: 2
Fore
SplineSet
26 185 m 1
 26 350 l 1
 611 626 l 1
 611 425 l 1
 26 185 l 1
26 185 m 1
 26 350 l 1
 611 111 l 1
 611 -90 l 1
 26 185 l 1
EndSplineSet
EndChar

StartChar: equal
Encoding: 61 61 29
Width: 663
VWidth: 999
Flags: HW
LayerCount: 2
Fore
SplineSet
67 350 m 1
 67 515 l 1
 615 515 l 1
 615 350 l 1
 67 350 l 1
615 185 m 1
 615 20 l 1
 67 20 l 1
 67 185 l 1
 615 185 l 1
EndSplineSet
EndChar

StartChar: greater
Encoding: 62 62 30
Width: 619
VWidth: 999
Flags: HW
LayerCount: 2
Fore
SplineSet
611 185 m 1
 26 425 l 1
 26 626 l 1
 611 350 l 1
 611 185 l 1
611 185 m 1
 26 -90 l 1
 26 111 l 1
 611 350 l 1
 611 185 l 1
EndSplineSet
EndChar

StartChar: question
Encoding: 63 63 31
Width: 569
VWidth: 999
Flags: HW
LayerCount: 2
Fore
SplineSet
13 588 m 1
 87 677 198 729 314 729 c 0
 464 729 581 675 581 539 c 0
 581 417 431 425 387 324 c 0
 375 297 373 267 373 238 c 1
 172 238 l 1
 172 245 293 402 358 487 c 0
 370 502 380 520 380 539 c 0
 380 569 348 564 314 564 c 0
 251 564 191 538 148 493 c 1
 13 588 l 1
378 97 m 0
 378 69 367 43 347 23 c 0
 327 3 301 -8 273 -8 c 0
 245 -8 218 3 198 23 c 0
 178 43 167 69 167 97 c 0
 167 125 178 152 198 172 c 0
 218 192 245 203 273 203 c 0
 301 203 327 192 347 172 c 0
 367 152 378 125 378 97 c 0
EndSplineSet
EndChar

StartChar: at
Encoding: 64 64 32
Width: 970
VWidth: 999
Flags: HW
LayerCount: 2
Fore
SplineSet
846 108 m 1
 846 -44 l 1
 732 -69 615 -82 498 -82 c 0
 216 -82 24 73 24 346 c 0
 24 619 216 774 498 774 c 0
 772 774 972 648 972 393 c 0
 972 293 913 203 821 163 c 1
 714 146 l 1
 542 213 l 1
 642 327 l 1
 745 295 l 1
 772 321 787 356 787 393 c 0
 787 547 664 622 498 622 c 0
 323 622 209 518 209 346 c 0
 209 174 323 70 498 70 c 0
 615 70 732 83 846 108 c 1
642 542 m 1
 795 542 l 1
 694 213 l 1
 542 213 l 1
 642 542 l 1
592 377 m 1
 653 465 l 1
 618 516 560 545 498 545 c 0
 186 545 1 333 1 13 c 0
 1 -387 313 146 498 146 c 0
 593 146 664 234 642 327 c 1
 666 431 l 1
 648 353 578 298 498 298 c 0
 334 298 1 -600 1 13 c 0
 1 274 214 393 498 393 c 0
 530 393 562 387 592 377 c 1
EndSplineSet
EndChar

StartChar: A
Encoding: 65 65 33
Width: 686
VWidth: 999
Flags: HW
LayerCount: 2
Fore
SplineSet
352 721 m 1
 453 721 l 1
 687 0 l 1
 486 0 l 1
 302 721 l 1
 352 721 l 1
252 721 m 1
 403 721 l 1
 215 0 l 1
 17 0 l 1
 252 721 l 1
168 286 m 1
 537 286 l 1
 537 146 l 1
 168 146 l 1
 168 286 l 1
EndSplineSet
EndChar

StartChar: B
Encoding: 66 66 34
Width: 675
VWidth: 999
Flags: HW
LayerCount: 2
Fore
SplineSet
67 721 m 1
 347 721 l 2
 498 721 613 659 613 521 c 0
 613 384 498 325 347 325 c 1
 67 383 l 1
 67 441 l 1
 347 441 l 2
 386 441 412 461 412 498 c 0
 412 535 386 556 347 556 c 2
 67 556 l 1
 67 721 l 1
67 383 m 1
 347 383 l 2
 511 383 647 349 647 206 c 0
 647 56 515 0 347 0 c 2
 67 0 l 1
 167 165 l 1
 347 165 l 2
 405 165 446 191 446 245 c 0
 446 299 405 325 347 325 c 2
 67 325 l 1
 67 383 l 1
67 721 m 1
 268 721 l 1
 268 0 l 1
 67 0 l 1
 67 721 l 1
EndSplineSet
EndChar

StartChar: C
Encoding: 67 67 35
Width: 669
VWidth: 999
Flags: HW
LayerCount: 2
Fore
SplineSet
564 500 m 1
 519 542 460 564 399 564 c 0
 286 564 227 479 227 360 c 0
 227 241 286 156 399 156 c 0
 469 156 516 177 564 227 c 1
 699 133 l 1
 625 44 515 -8 399 -8 c 0
 171 -8 26 133 26 360 c 0
 26 587 171 729 399 729 c 0
 527 729 614 689 699 594 c 1
 564 500 l 1
EndSplineSet
EndChar

StartChar: D
Encoding: 68 68 36
Width: 686
VWidth: 999
Flags: HW
LayerCount: 2
Fore
SplineSet
67 556 m 1
 67 721 l 1
 317 721 l 2
 540 721 687 590 687 371 c 0
 687 144 544 0 317 0 c 2
 67 0 l 1
 67 165 l 1
 317 165 l 2
 429 165 486 251 486 371 c 0
 486 482 424 556 317 556 c 2
 67 556 l 1
67 721 m 1
 268 721 l 1
 268 0 l 1
 67 0 l 1
 67 721 l 1
EndSplineSet
EndChar

StartChar: E
Encoding: 69 69 37
Width: 608
VWidth: 999
Flags: HW
LayerCount: 2
Fore
SplineSet
67 721 m 1
 268 721 l 1
 268 0 l 1
 67 0 l 1
 67 721 l 1
167 556 m 1
 167 721 l 1
 562 721 l 1
 562 556 l 1
 167 556 l 1
167 278 m 1
 167 443 l 1
 500 443 l 1
 500 278 l 1
 167 278 l 1
167 0 m 1
 167 165 l 1
 593 165 l 1
 593 0 l 1
 167 0 l 1
EndSplineSet
EndChar

StartChar: F
Encoding: 70 70 38
Width: 603
VWidth: 999
Flags: HW
LayerCount: 2
Fore
SplineSet
67 721 m 1
 268 721 l 1
 268 0 l 1
 67 0 l 1
 67 721 l 1
167 556 m 1
 167 721 l 1
 557 721 l 1
 557 556 l 1
 167 556 l 1
167 278 m 1
 167 443 l 1
 495 443 l 1
 495 278 l 1
 167 278 l 1
EndSplineSet
EndChar

StartChar: G
Encoding: 71 71 39
Width: 719
VWidth: 999
Flags: HW
LayerCount: 2
Fore
SplineSet
578 502 m 1
 530 543 469 564 406 564 c 0
 291 564 227 481 227 360 c 0
 227 243 292 165 406 165 c 0
 508 165 611 167 713 172 c 1
 713 8 l 1
 611 3 508 0 406 0 c 0
 176 0 26 135 26 360 c 0
 26 589 175 729 406 729 c 0
 522 729 634 681 713 596 c 1
 578 502 l 1
512 8 m 1
 512 360 l 1
 713 360 l 1
 713 8 l 1
 512 8 l 1
713 443 m 1
 713 278 l 1
 369 278 l 1
 369 443 l 1
 713 443 l 1
EndSplineSet
EndChar

StartChar: H
Encoding: 72 72 40
Width: 675
VWidth: 999
Flags: HW
LayerCount: 2
Fore
SplineSet
67 721 m 1
 268 721 l 1
 268 0 l 1
 67 0 l 1
 67 721 l 1
425 0 m 1
 425 721 l 1
 626 721 l 1
 626 0 l 1
 425 0 l 1
167 314 m 1
 167 479 l 1
 526 479 l 1
 526 314 l 1
 167 314 l 1
EndSplineSet
EndChar

StartChar: I
Encoding: 73 73 41
Width: 254
VWidth: 999
Flags: HW
LayerCount: 2
Fore
SplineSet
31 721 m 1
 232 721 l 1
 232 0 l 1
 31 0 l 1
 31 721 l 1
EndSplineSet
EndChar

StartChar: J
Encoding: 74 74 42
Width: 531
VWidth: 999
Flags: HW
LayerCount: 2
Fore
SplineSet
303 721 m 1
 504 721 l 1
 504 252 l 2
 504 94 409 -8 252 -8 c 0
 154 -8 86 17 13 82 c 1
 148 177 l 1
 178 145 208 132 252 132 c 0
 306 132 303 189 303 252 c 2
 303 721 l 1
EndSplineSet
EndChar

StartChar: K
Encoding: 75 75 43
Width: 641
VWidth: 999
Flags: HW
LayerCount: 2
Fore
SplineSet
67 721 m 1
 268 721 l 1
 268 0 l 1
 67 0 l 1
 67 721 l 1
429 721 m 1
 691 721 l 1
 469 360 l 1
 691 0 l 1
 429 0 l 1
 268 360 l 1
 429 721 l 1
EndSplineSet
EndChar

StartChar: L
Encoding: 76 76 44
Width: 575
VWidth: 999
Flags: HW
LayerCount: 2
Fore
SplineSet
67 721 m 1
 268 721 l 1
 268 0 l 1
 67 0 l 1
 67 721 l 1
167 0 m 1
 167 165 l 1
 543 165 l 1
 543 0 l 1
 167 0 l 1
EndSplineSet
EndChar

StartChar: M
Encoding: 77 77 45
Width: 829
VWidth: 999
Flags: HW
LayerCount: 2
Fore
SplineSet
67 721 m 1
 268 721 l 1
 268 0 l 1
 67 0 l 1
 67 721 l 1
584 721 m 1
 785 721 l 1
 785 0 l 1
 584 0 l 1
 584 721 l 1
103 721 m 1
 268 721 l 1
 508 159 l 1
 344 159 l 1
 103 721 l 1
584 721 m 1
 749 721 l 1
 508 159 l 1
 344 159 l 1
 584 721 l 1
EndSplineSet
EndChar

StartChar: N
Encoding: 78 78 46
Width: 708
VWidth: 999
Flags: HW
LayerCount: 2
Fore
SplineSet
67 721 m 1
 268 721 l 1
 268 0 l 1
 67 0 l 1
 67 721 l 1
459 721 m 1
 660 721 l 1
 660 0 l 1
 459 0 l 1
 459 721 l 1
67 721 m 1
 268 721 l 1
 624 0 l 1
 459 0 l 1
 67 721 l 1
EndSplineSet
EndChar

StartChar: O
Encoding: 79 79 47
Width: 730
VWidth: 999
Flags: HW
LayerCount: 2
Fore
SplineSet
375 729 m 1
 593 729 724 582 724 360 c 0
 724 138 593 -8 375 -8 c 0
 157 -8 26 138 26 360 c 0
 26 582 157 729 375 729 c 1
 375 564 l 1
 271 564 227 475 227 360 c 0
 227 245 271 156 375 156 c 0
 479 156 523 245 523 360 c 0
 523 475 479 564 375 564 c 1
 375 729 l 1
EndSplineSet
EndChar

StartChar: P
Encoding: 80 80 48
Width: 663
VWidth: 999
Flags: HW
LayerCount: 2
Fore
SplineSet
67 721 m 1
 268 721 l 1
 268 0 l 1
 67 0 l 1
 67 721 l 1
167 721 m 1
 348 721 l 2
 527 721 656 637 656 469 c 0
 656 301 527 216 348 216 c 2
 167 216 l 1
 167 381 l 1
 348 381 l 2
 410 381 455 411 455 469 c 0
 455 527 410 556 348 556 c 2
 167 556 l 1
 167 721 l 1
EndSplineSet
EndChar

StartChar: Q
Encoding: 81 81 49
Width: 729
VWidth: 999
Flags: HW
LayerCount: 2
Fore
SplineSet
375 729 m 1
 593 729 723 583 723 361 c 0
 723 139 593 -7 375 -7 c 0
 157 -7 26 139 26 361 c 0
 26 583 157 729 375 729 c 1
 375 565 l 1
 271 565 226 476 226 361 c 0
 226 246 271 157 375 157 c 0
 479 157 523 246 523 361 c 0
 523 476 479 565 375 565 c 1
 375 729 l 1
475 1 m 1
 475 -32 529 -32 574 -32 c 2
 623 -32 l 1
 623 -197 l 1
 574 -197 l 2
 424 -197 274 -132 274 1 c 1
 475 1 l 1
EndSplineSet
EndChar

StartChar: R
Encoding: 82 82 50
Width: 663
VWidth: 999
Flags: HW
LayerCount: 2
Fore
SplineSet
67 721 m 1
 268 721 l 1
 268 0 l 1
 67 0 l 1
 67 721 l 1
167 721 m 1
 375 721 l 2
 541 721 656 632 656 472 c 0
 656 312 541 223 375 223 c 2
 167 223 l 1
 167 388 l 1
 375 388 l 2
 425 388 455 421 455 472 c 0
 455 523 425 556 375 556 c 2
 167 556 l 1
 167 721 l 1
475 306 m 1
 656 0 l 1
 455 0 l 1
 275 306 l 1
 475 306 l 1
EndSplineSet
EndChar

StartChar: S
Encoding: 83 83 51
Width: 641
VWidth: 999
Flags: HW
LayerCount: 2
Fore
SplineSet
346 729 m 0
 459 729 567 677 636 588 c 1
 500 493 l 1
 463 541 406 569 346 569 c 0
 293 569 237 559 237 514 c 0
 237 483 256 462 287 458 c 2
 417 440 l 2
 554 421 644 347 644 214 c 0
 644 56 508 -8 333 -8 c 0
 211 -8 94 43 11 133 c 1
 146 227 l 1
 198 181 264 156 333 156 c 0
 392 156 443 164 443 214 c 0
 443 246 425 267 393 271 c 2
 263 289 l 2
 127 308 36 382 36 514 c 0
 36 670 172 729 346 729 c 0
EndSplineSet
EndChar

StartChar: T
Encoding: 84 84 52
Width: 675
VWidth: 999
Flags: HW
LayerCount: 2
Fore
SplineSet
70 556 m 1
 70 721 l 1
 623 721 l 1
 623 556 l 1
 70 556 l 1
246 639 m 1
 447 639 l 1
 447 0 l 1
 246 0 l 1
 246 639 l 1
EndSplineSet
EndChar

StartChar: U
Encoding: 85 85 53
Width: 702
VWidth: 999
Flags: HW
LayerCount: 2
Fore
SplineSet
67 721 m 1
 268 721 l 1
 268 294 l 2
 268 217 293 156 361 156 c 0
 430 156 457 217 457 294 c 2
 457 721 l 1
 655 721 l 1
 655 294 l 2
 655 110 543 -8 361 -8 c 0
 179 -8 67 110 67 294 c 2
 67 721 l 1
EndSplineSet
EndChar

StartChar: V
Encoding: 86 86 54
Width: 724
VWidth: 999
Flags: HW
LayerCount: 2
Fore
SplineSet
34 721 m 1
 235 721 l 1
 412 0 l 1
 272 0 l 1
 34 721 l 1
512 721 m 1
 710 721 l 1
 473 0 l 1
 332 0 l 1
 512 721 l 1
EndSplineSet
EndChar

StartChar: W
Encoding: 87 87 55
Width: 907
VWidth: 999
Flags: HW
LayerCount: 2
Fore
SplineSet
34 721 m 1
 215 721 l 1
 310 216 l 1
 311 0 l 1
 170 0 l 1
 130 216 l 1
 34 721 l 1
211 0 m 1
 252 288 l 1
 293 433 l 1
 375 721 l 1
 516 721 l 1
 474 433 l 1
 433 288 l 1
 351 0 l 1
 211 0 l 1
415 721 m 1
 556 721 l 1
 638 433 l 1
 679 288 l 1
 721 0 l 1
 580 0 l 1
 498 288 l 1
 457 433 l 1
 415 721 l 1
620 0 m 1
 635 288 l 1
 717 721 l 1
 897 721 l 1
 815 288 l 1
 761 0 l 1
 620 0 l 1
EndSplineSet
EndChar

StartChar: X
Encoding: 88 88 56
Width: 730
VWidth: 999
Flags: HW
LayerCount: 2
Fore
SplineSet
18 721 m 1
 236 721 l 1
 476 360 l 1
 733 0 l 1
 516 0 l 1
 275 360 l 1
 18 721 l 1
535 721 m 1
 733 721 l 1
 475 360 l 1
 216 0 l 1
 18 0 l 1
 277 360 l 1
 535 721 l 1
EndSplineSet
EndChar

StartChar: Y
Encoding: 89 89 57
Width: 652
VWidth: 999
Flags: HW
LayerCount: 2
Fore
SplineSet
34 721 m 1
 235 721 l 1
 375 324 l 1
 235 324 l 1
 34 721 l 1
436 721 m 1
 637 721 l 1
 436 324 l 1
 295 324 l 1
 436 721 l 1
235 324 m 1
 436 324 l 1
 436 0 l 1
 235 0 l 1
 235 324 l 1
EndSplineSet
EndChar

StartChar: Z
Encoding: 90 90 58
Width: 663
VWidth: 999
Flags: HW
LayerCount: 2
Fore
SplineSet
67 556 m 1
 67 721 l 1
 615 721 l 1
 615 556 l 1
 67 556 l 1
67 0 m 1
 67 165 l 1
 615 165 l 1
 615 0 l 1
 67 0 l 1
495 678 m 1
 615 556 l 1
 187 43 l 1
 67 165 l 1
 495 678 l 1
EndSplineSet
EndChar

StartChar: bracketleft
Encoding: 91 91 59
Width: 420
VWidth: 999
Flags: HW
LayerCount: 2
Fore
SplineSet
64 772 m 1
 254 772 l 1
 254 -108 l 1
 64 -108 l 1
 64 772 l 1
254 616 m 1
 254 772 l 1
 369 772 l 1
 369 616 l 1
 254 616 l 1
254 -108 m 1
 254 48 l 1
 369 48 l 1
 369 -108 l 1
 254 -108 l 1
EndSplineSet
EndChar

StartChar: backslash
Encoding: 92 92 60
Width: 459
VWidth: 999
Flags: HW
LayerCount: 2
Fore
SplineSet
17 729 m 1
 218 729 l 1
 455 -8 l 1
 254 -8 l 1
 17 729 l 1
EndSplineSet
EndChar

StartChar: bracketright
Encoding: 93 93 61
Width: 420
VWidth: 999
Flags: HW
LayerCount: 2
Fore
SplineSet
178 772 m 1
 369 772 l 1
 369 -108 l 1
 178 -108 l 1
 178 772 l 1
178 616 m 1
 64 616 l 1
 64 772 l 1
 178 772 l 1
 178 616 l 1
178 -108 m 1
 64 -108 l 1
 64 48 l 1
 178 48 l 1
 178 -108 l 1
EndSplineSet
EndChar

StartChar: asciicircum
Encoding: 94 94 62
Width: 539
VWidth: 999
Flags: HW
LayerCount: 2
Fore
SplineSet
25 538 m 1
 189 773 l 1
 366 773 l 1
 530 538 l 1
 441 403 l 1
 277 638 l 1
 277 638 l 1
 114 403 l 1
 25 538 l 1
EndSplineSet
EndChar

StartChar: underscore
Encoding: 95 95 63
Width: 586
VWidth: 999
Flags: HW
LayerCount: 2
Fore
SplineSet
67 0 m 1
 536 0 l 1
 536 -165 l 1
 67 -165 l 1
 67 0 l 1
EndSplineSet
EndChar

StartChar: grave
Encoding: 96 96 64
Width: 296
VWidth: 999
Flags: HW
LayerCount: 2
Fore
SplineSet
55 799 m 1
 251 799 l 1
 339 598 l 1
 163 598 l 1
 55 799 l 1
EndSplineSet
EndChar

StartChar: a
Encoding: 97 97 65
Width: 586
VWidth: 999
Flags: HW
LayerCount: 2
Fore
SplineSet
50 448 m 1
 126 516 197 544 299 544 c 0
 439 544 536 470 536 337 c 2
 536 0 l 1
 385 0 l 1
 355 84 l 1
 355 337 l 2
 355 386 317 412 265 412 c 0
 218 412 174 391 144 355 c 1
 50 448 l 1
536 311 m 1
 536 198 l 1
 301 198 l 2
 256 198 217 197 217 159 c 0
 217 126 248 119 286 119 c 0
 317 119 344 138 355 167 c 1
 355 84 l 1
 320 27 258 -8 191 -8 c 0
 89 -8 26 57 26 159 c 0
 26 269 123 311 246 311 c 2
 536 311 l 1
EndSplineSet
EndChar

StartChar: b
Encoding: 98 98 66
Width: 646
VWidth: 999
Flags: HW
LayerCount: 2
Fore
SplineSet
42 729 m 1
 243 729 l 1
 243 144 l 1
 193 0 l 1
 42 0 l 1
 42 144 l 1
 42 729 l 1
189 374 m 1
 211 473 299 544 400 544 c 0
 554 544 638 430 638 268 c 0
 638 106 554 -8 400 -8 c 0
 299 -8 211 62 189 161 c 1
 243 199 l 1
 254 159 291 132 332 132 c 0
 404 132 437 190 437 268 c 0
 437 346 404 404 332 404 c 0
 291 404 254 376 243 336 c 1
 189 374 l 1
EndSplineSet
EndChar

StartChar: c
Encoding: 99 99 67
Width: 558
VWidth: 999
Flags: HW
LayerCount: 2
Fore
SplineSet
549 402 m 1
 427 317 l 1
 407 370 369 395 313 395 c 0
 244 395 211 342 211 268 c 0
 211 194 244 140 313 140 c 0
 364 140 409 172 427 219 c 1
 549 134 l 1
 503 47 412 -8 313 -8 c 0
 139 -8 26 96 26 268 c 0
 26 440 139 544 313 544 c 0
 423 544 498 499 549 402 c 1
EndSplineSet
EndChar

StartChar: d
Encoding: 100 100 68
Width: 646
VWidth: 999
Flags: HW
LayerCount: 2
Fore
SplineSet
421 729 m 1
 622 729 l 1
 622 144 l 1
 622 0 l 1
 471 0 l 1
 421 144 l 1
 421 729 l 1
475 374 m 1
 421 336 l 1
 410 376 373 404 332 404 c 0
 260 404 227 346 227 268 c 0
 227 190 260 132 332 132 c 0
 373 132 410 159 421 199 c 1
 475 161 l 1
 453 62 365 -8 264 -8 c 0
 110 -8 26 106 26 268 c 0
 26 430 110 544 264 544 c 0
 365 544 453 473 475 374 c 1
EndSplineSet
EndChar

StartChar: e
Encoding: 101 101 69
Width: 603
VWidth: 999
Flags: HW
LayerCount: 2
Fore
SplineSet
570 207 m 1
 403 207 l 1
 403 317 l 2
 403 369 373 404 322 404 c 0
 265 404 227 372 227 317 c 2
 227 262 l 1
 227 207 l 2
 227 153 266 123 322 123 c 0
 356 123 388 137 412 160 c 1
 520 84 l 1
 471 25 398 -8 322 -8 c 0
 145 -8 26 90 26 262 c 0
 26 438 143 544 322 544 c 0
 491 544 594 433 594 262 c 0
 594 239 587 223 570 207 c 1
26 207 m 1
 26 317 l 1
 594 317 l 1
 570 207 l 1
 26 207 l 1
EndSplineSet
EndChar

StartChar: f
Encoding: 102 102 70
Width: 464
VWidth: 999
Flags: HW
LayerCount: 2
Fore
SplineSet
120 0 m 1
 120 564 l 2
 120 687 214 750 344 750 c 0
 384 750 424 747 464 741 c 1
 452 601 l 1
 406 601 l 2
 361 601 320 602 320 564 c 2
 320 0 l 1
 120 0 l 1
34 536 m 1
 452 536 l 1
 452 371 l 1
 34 371 l 1
 34 536 l 1
EndSplineSet
EndChar

StartChar: g
Encoding: 103 103 71
Width: 607
VWidth: 999
Flags: HW
LayerCount: 2
Fore
SplineSet
259 544 m 1
 391 544 493 494 493 375 c 0
 493 256 391 207 259 207 c 0
 127 207 26 256 26 375 c 0
 26 494 127 544 259 544 c 1
 259 421 l 1
 228 421 206 404 206 375 c 0
 206 346 228 330 259 330 c 0
 290 330 312 346 312 375 c 0
 312 404 290 421 259 421 c 1
 259 544 l 1
259 256 m 1
 259 207 l 1
 231 207 200 199 200 175 c 0
 200 148 227 144 259 144 c 2
 411 144 l 2
 521 144 599 89 599 -14 c 0
 599 -139 454 -197 312 -197 c 0
 194 -197 111 -169 17 -98 c 1
 137 3 l 1
 189 -49 239 -70 312 -70 c 0
 362 -70 418 -67 418 -24 c 0
 418 1 372 1 335 1 c 2
 259 1 l 2
 133 1 26 19 26 128 c 0
 26 237 133 256 259 256 c 1
607 536 m 1
 607 375 l 1
 402 375 l 1
 402 478 476 536 583 536 c 2
 607 536 l 1
EndSplineSet
EndChar

StartChar: h
Encoding: 104 104 72
Width: 608
VWidth: 999
Flags: HW
LayerCount: 2
Fore
SplineSet
67 721 m 1
 268 721 l 1
 268 0 l 1
 67 0 l 1
 67 721 l 1
227 355 m 1
 216 467 286 544 399 544 c 0
 519 544 583 454 583 327 c 2
 583 0 l 1
 382 0 l 1
 382 327 l 2
 382 370 369 404 331 404 c 0
 286 404 259 371 268 327 c 1
 227 355 l 1
EndSplineSet
EndChar

StartChar: i
Encoding: 105 105 73
Width: 331
VWidth: 999
Flags: HW
LayerCount: 2
Fore
SplineSet
26 371 m 1
 26 536 l 1
 205 536 l 1
 205 371 l 1
 26 371 l 1
105 536 m 1
 305 536 l 1
 305 0 l 1
 105 0 l 1
 105 536 l 1
310 690 m 0
 310 662 300 636 280 616 c 0
 260 596 233 585 205 585 c 0
 177 585 150 596 130 616 c 0
 110 636 100 662 100 690 c 0
 100 718 110 745 130 765 c 0
 150 785 177 796 205 796 c 0
 233 796 260 785 280 765 c 0
 300 745 310 718 310 690 c 0
EndSplineSet
EndChar

StartChar: j
Encoding: 106 106 74
Width: 298
VWidth: 999
Flags: HW
LayerCount: 2
Fore
SplineSet
65 536 m 1
 266 536 l 1
 266 1 l 2
 266 -128 169 -197 32 -197 c 2
 13 -197 l 1
 13 -32 l 1
 32 -32 l 2
 50 -32 65 -17 65 1 c 2
 65 536 l 1
271 690 m 0
 271 662 260 636 240 616 c 0
 220 596 194 585 166 585 c 0
 138 585 111 596 91 616 c 0
 71 636 60 662 60 690 c 0
 60 718 71 745 91 765 c 0
 111 785 138 796 166 796 c 0
 194 796 220 785 240 765 c 0
 260 745 271 718 271 690 c 0
EndSplineSet
EndChar

StartChar: k
Encoding: 107 107 75
Width: 564
VWidth: 999
Flags: HW
LayerCount: 2
Fore
SplineSet
67 721 m 1
 268 721 l 1
 268 0 l 1
 67 0 l 1
 67 721 l 1
356 536 m 1
 587 536 l 1
 469 268 l 1
 587 0 l 1
 356 0 l 1
 268 268 l 1
 356 536 l 1
368 185 m 1
 167 185 l 1
 167 350 l 1
 368 350 l 1
 368 185 l 1
EndSplineSet
EndChar

StartChar: l
Encoding: 108 108 76
Width: 287
VWidth: 999
Flags: HW
LayerCount: 2
Fore
SplineSet
48 729 m 1
 249 729 l 1
 249 161 l 2
 249 148 259 165 266 165 c 2
 296 165 l 1
 296 0 l 1
 266 0 l 2
 142 0 48 49 48 161 c 2
 48 729 l 1
EndSplineSet
EndChar

StartChar: m
Encoding: 109 109 77
Width: 907
VWidth: 999
Flags: HW
LayerCount: 2
Fore
SplineSet
67 536 m 1
 268 536 l 1
 268 0 l 1
 67 0 l 1
 67 536 l 1
227 384 m 1
 228 473 300 544 389 544 c 0
 484 544 541 477 526 384 c 1
 527 473 599 544 688 544 c 0
 806 544 864 453 864 327 c 2
 864 0 l 1
 663 0 l 1
 663 327 l 2
 663 369 656 404 620 404 c 0
 592 404 569 382 566 355 c 1
 566 327 l 1
 566 0 l 1
 365 0 l 1
 365 327 l 2
 365 369 357 404 321 404 c 0
 293 404 271 382 268 355 c 1
 227 384 l 1
EndSplineSet
EndChar

StartChar: n
Encoding: 110 110 78
Width: 630
VWidth: 999
Flags: HW
LayerCount: 2
Fore
SplineSet
42 536 m 1
 243 536 l 1
 243 0 l 1
 42 0 l 1
 42 536 l 1
203 355 m 1
 208 461 294 544 400 544 c 0
 529 544 606 458 606 327 c 2
 606 0 l 1
 405 0 l 1
 405 327 l 2
 405 373 378 404 332 404 c 0
 287 404 249 371 243 327 c 1
 203 355 l 1
EndSplineSet
EndChar

StartChar: o
Encoding: 111 111 79
Width: 636
VWidth: 999
Flags: HW
LayerCount: 2
Fore
SplineSet
327 544 m 1
 506 544 628 445 628 272 c 0
 628 96 508 -8 327 -8 c 0
 146 -8 26 96 26 272 c 0
 26 445 148 544 327 544 c 1
 327 404 l 1
 258 404 227 347 227 272 c 0
 227 193 256 132 327 132 c 0
 398 132 427 193 427 272 c 0
 427 347 396 404 327 404 c 1
 327 544 l 1
EndSplineSet
EndChar

StartChar: p
Encoding: 112 112 80
Width: 645
VWidth: 999
Flags: HW
LayerCount: 2
Fore
SplineSet
42 536 m 1
 223 536 l 1
 243 429 l 1
 243 -197 l 1
 42 -197 l 1
 42 536 l 1
189 375 m 1
 211 474 298 544 399 544 c 0
 553 544 637 430 637 268 c 0
 637 106 553 -7 399 -7 c 0
 291 -7 201 74 189 181 c 1
 243 219 l 1
 244 171 283 133 331 133 c 0
 403 133 437 190 437 268 c 0
 437 346 403 404 331 404 c 0
 290 404 254 377 243 337 c 1
 189 375 l 1
EndSplineSet
EndChar

StartChar: q
Encoding: 113 113 81
Width: 645
VWidth: 999
Flags: HW
LayerCount: 2
Fore
SplineSet
440 536 m 1
 621 536 l 1
 621 -197 l 1
 420 -197 l 1
 420 429 l 1
 440 536 l 1
474 375 m 1
 420 337 l 1
 409 377 372 404 331 404 c 0
 259 404 226 346 226 268 c 0
 226 190 259 133 331 133 c 0
 379 133 419 171 420 219 c 1
 474 181 l 1
 462 74 372 -7 264 -7 c 0
 110 -7 26 106 26 268 c 0
 26 430 110 544 264 544 c 0
 365 544 452 474 474 375 c 1
EndSplineSet
EndChar

StartChar: r
Encoding: 114 114 82
Width: 398
VWidth: 999
Flags: HW
LayerCount: 2
Fore
SplineSet
67 536 m 1
 268 536 l 1
 268 0 l 1
 67 0 l 1
 67 536 l 1
173 387 m 1
 234 474 285 544 389 544 c 1
 389 379 l 1
 336 379 298 364 268 321 c 1
 173 387 l 1
EndSplineSet
EndChar

StartChar: s
Encoding: 115 115 83
Width: 520
VWidth: 999
Flags: HW
LayerCount: 2
Fore
SplineSet
283 544 m 0
 371 544 456 511 522 452 c 1
 400 367 l 1
 365 391 325 404 283 404 c 0
 247 404 211 411 211 379 c 0
 211 359 230 356 252 354 c 2
 305 349 l 2
 432 339 522 276 522 155 c 0
 522 27 402 -8 256 -8 c 0
 164 -8 77 27 11 91 c 1
 133 176 l 1
 168 147 211 132 256 132 c 0
 298 132 341 117 341 155 c 0
 341 178 317 177 292 179 c 2
 239 183 l 2
 115 193 31 259 31 379 c 0
 31 503 143 544 283 544 c 0
EndSplineSet
EndChar

StartChar: t
Encoding: 116 116 84
Width: 464
VWidth: 999
Flags: HW
LayerCount: 2
Fore
SplineSet
26 371 m 1
 26 536 l 1
 452 536 l 1
 452 371 l 1
 26 371 l 1
120 667 m 1
 320 721 l 1
 320 180 l 2
 320 155 338 140 364 140 c 2
 448 140 l 1
 458 0 l 1
 412 -6 379 -8 333 -8 c 0
 207 -8 120 59 120 180 c 2
 120 667 l 1
EndSplineSet
EndChar

StartChar: u
Encoding: 117 117 85
Width: 630
VWidth: 999
Flags: HW
LayerCount: 2
Fore
SplineSet
405 536 m 1
 606 536 l 1
 606 0 l 1
 405 0 l 1
 405 536 l 1
42 536 m 1
 243 536 l 1
 243 209 l 2
 243 163 270 132 316 132 c 0
 361 132 399 165 405 209 c 1
 459 171 l 1
 445 68 358 -8 254 -8 c 0
 123 -8 42 77 42 209 c 2
 42 536 l 1
EndSplineSet
EndChar

StartChar: v
Encoding: 118 118 86
Width: 614
VWidth: 999
Flags: HW
LayerCount: 2
Fore
SplineSet
34 536 m 1
 235 536 l 1
 356 0 l 1
 215 0 l 1
 34 536 l 1
396 536 m 1
 597 536 l 1
 416 0 l 1
 275 0 l 1
 396 536 l 1
EndSplineSet
EndChar

StartChar: w
Encoding: 119 119 87
Width: 829
VWidth: 999
Flags: HW
LayerCount: 2
Fore
SplineSet
34 536 m 1
 235 536 l 1
 286 161 l 1
 247 0 l 1
 107 0 l 1
 85 161 l 1
 34 536 l 1
167 0 m 1
 271 402 l 1
 162 134 l 1
 326 536 l 1
 466 536 l 1
 362 134 l 1
 472 402 l 1
 308 0 l 1
 167 0 l 1
386 536 m 1
 526 536 l 1
 690 134 l 1
 581 402 l 1
 685 0 l 1
 544 0 l 1
 380 402 l 1
 490 134 l 1
 386 536 l 1
604 0 m 1
 599 402 l 1
 617 536 l 1
 818 536 l 1
 800 402 l 1
 745 0 l 1
 604 0 l 1
EndSplineSet
EndChar

StartChar: x
Encoding: 120 120 88
Width: 569
VWidth: 999
Flags: HW
LayerCount: 2
Fore
SplineSet
18 536 m 1
 235 536 l 1
 394 268 l 1
 569 0 l 1
 352 0 l 1
 193 268 l 1
 18 536 l 1
352 536 m 1
 569 536 l 1
 394 268 l 1
 235 0 l 1
 18 0 l 1
 193 268 l 1
 352 536 l 1
EndSplineSet
EndChar

StartChar: y
Encoding: 121 121 89
Width: 613
VWidth: 999
Flags: HW
LayerCount: 2
Fore
SplineSet
17 536 m 1
 218 536 l 1
 317 268 l 1
 355 1 l 1
 215 1 l 1
 116 268 l 1
 17 536 l 1
412 536 m 1
 613 536 l 1
 514 268 l 1
 415 1 l 1
 275 1 l 1
 313 268 l 1
 412 536 l 1
215 1 m 1
 415 1 l 1
 343 -197 l 1
 142 -197 l 1
 215 1 l 1
EndSplineSet
EndChar

StartChar: z
Encoding: 122 122 90
Width: 575
VWidth: 999
Flags: HW
LayerCount: 2
Fore
SplineSet
67 371 m 1
 67 536 l 1
 524 536 l 1
 524 371 l 1
 67 371 l 1
67 0 m 1
 67 165 l 1
 524 165 l 1
 524 0 l 1
 67 0 l 1
392 478 m 1
 524 371 l 1
 200 57 l 1
 67 165 l 1
 392 478 l 1
EndSplineSet
EndChar

StartChar: braceleft
Encoding: 123 123 91
Width: 367
VWidth: 999
Flags: HW
LayerCount: 2
Fore
SplineSet
356 772 m 1
 356 616 l 1
 311 616 283 587 283 542 c 2
 283 483 l 2
 283 351 167 301 19 301 c 1
 19 410 l 1
 64 410 92 438 92 483 c 2
 92 542 l 2
 92 690 200 772 356 772 c 1
19 363 m 1
 167 363 283 312 283 180 c 2
 283 122 l 2
 283 77 311 48 356 48 c 1
 356 -108 l 1
 200 -108 92 -26 92 122 c 2
 92 180 l 2
 92 225 64 254 19 254 c 1
 19 363 l 1
EndSplineSet
EndChar

StartChar: bar
Encoding: 124 124 92
Width: 377
VWidth: 999
Flags: HW
LayerCount: 2
Fore
SplineSet
96 799 m 1
 292 799 l 1
 292 -106 l 1
 96 -106 l 1
 96 799 l 1
EndSplineSet
EndChar

StartChar: braceright
Encoding: 125 125 93
Width: 368
VWidth: 999
Flags: HW
LayerCount: 2
Fore
SplineSet
24 617 m 1
 24 773 l 1
 180 773 289 692 289 543 c 2
 289 484 l 2
 289 439 317 411 362 411 c 1
 362 254 l 1
 206 254 98 335 98 484 c 2
 98 543 l 2
 98 588 69 617 24 617 c 1
362 254 m 1
 317 254 289 226 289 181 c 2
 289 122 l 2
 289 -27 180 -108 24 -108 c 1
 24 49 l 1
 69 49 98 77 98 122 c 2
 98 181 l 2
 98 314 214 364 362 364 c 1
 362 254 l 1
EndSplineSet
EndChar

StartChar: asciitilde
Encoding: 126 126 94
Width: 691
VWidth: 999
Flags: HW
LayerCount: 2
Fore
SplineSet
26 161 m 1
 26 276 111 375 223 375 c 0
 293 375 342 363 405 333 c 1
 305 202 l 1
 275 208 254 210 223 210 c 0
 201 210 191 186 191 161 c 1
 26 161 l 1
685 375 m 1
 685 260 599 161 487 161 c 0
 417 161 368 172 305 202 c 1
 405 333 l 1
 435 327 456 325 487 325 c 0
 509 325 520 350 520 375 c 1
 685 375 l 1
EndSplineSet
EndChar
